<?xml version="1.0" encoding="utf-8"?>
<!-- Generator: Adobe Illustrator 25.0.0, SVG Export Plug-In . SVG Version: 6.00 Build 0)  -->
<svg version="1.1" id="图层_1" xmlns="http://www.w3.org/2000/svg" xmlns:xlink="http://www.w3.org/1999/xlink" x="0px" y="0px"
	 viewBox="0 0 566.93 566.93" style="enable-background:new 0 0 566.93 566.93;" xml:space="preserve">
<style type="text/css">
	.st0{fill:url(#SVGID_1_);}
	.st1{fill:url(#SVGID_2_);}
	.st2{fill:url(#SVGID_3_);}
	.st3{fill:url(#SVGID_4_);}
	.st4{fill:url(#SVGID_5_);}
	.st5{fill:url(#SVGID_6_);}
	.st6{fill:url(#SVGID_7_);}
	.st7{fill:#410692;}
	.st8{fill:url(#SVGID_8_);}
	.st9{fill:url(#SVGID_9_);}
	.st10{fill:url(#SVGID_10_);}
	.st11{fill:url(#SVGID_11_);}
	.st12{fill:url(#SVGID_12_);}
	.st13{fill:url(#SVGID_13_);}
	.st14{fill:url(#SVGID_14_);}
	.st15{fill:url(#SVGID_15_);}
	.st16{fill:url(#SVGID_16_);}
	.st17{fill:url(#SVGID_17_);}
	.st18{fill:url(#SVGID_18_);}
	.st19{fill:url(#SVGID_19_);}
	.st20{fill:url(#SVGID_20_);}
	.st21{fill:url(#SVGID_21_);}
	.st22{fill:url(#SVGID_22_);}
	.st23{fill:url(#SVGID_23_);}
	.st24{fill:url(#SVGID_24_);}
	.st25{fill:url(#SVGID_25_);}
	.st26{fill:url(#SVGID_26_);}
	.st27{fill:url(#SVGID_27_);}
	.st28{fill:url(#SVGID_28_);}
	.st29{fill:url(#SVGID_29_);}
	.st30{fill:url(#SVGID_30_);}
	.st31{fill:url(#SVGID_31_);}
	.st32{fill:url(#SVGID_32_);}
	.st33{fill:url(#SVGID_33_);}
	.st34{fill:url(#SVGID_34_);}
	.st35{fill:url(#SVGID_35_);}
	.st36{fill:url(#SVGID_36_);}
	.st37{fill:url(#SVGID_37_);}
</style>
<g>
	<linearGradient id="SVGID_1_" gradientUnits="userSpaceOnUse" x1="-167.008" y1="284.2094" x2="-55.9259" y2="281.6849">
		<stop  offset="0.081" style="stop-color:#F06DB5"/>
		<stop  offset="0.6117" style="stop-color:#BE4EBF"/>
		<stop  offset="0.9469" style="stop-color:#6D28D9"/>
	</linearGradient>
	<path class="st0" d="M160,293.52c-1.54,12.04-0.28,23.73,4.37,35.05c-0.19-0.17-0.38-0.33-0.57-0.5
		c-5.63-5.18-10.8-9.72-14.01-16.62c-3.86-8.32-6.47-18.62-7.33-27.73c-1.11-11.78,1.41-23.47,4.98-34.76
		c0.42-1.34,1.13-2.47,2.02-3.53c2.15-2.56,4.19-5.2,6.41-7.7c2.65-2.99,5.67-5.61,8.81-8.09c3.12-2.46,6.37-4.74,9.86-6.62
		c3.22-1.73,6.5-3.39,9.89-4.76c3.73-1.5,7.55-2.8,11.49-3.7c2.63-0.61,5.25-1.28,7.94-1.94c-0.64,1.38-1.36,2.65-1.83,4
		c-0.6,1.72-1.63,3.04-2.93,4.3c-5.85,5.67-10.45,12.25-13.74,19.7c-4.65,10.53-6.35,21.52-4.87,32.98
		c1.09,8.46,3.84,16.34,8.15,23.68c3.97,6.76,9.03,12.6,15.09,17.56c8.26,6.76,17.61,11.38,27.96,13.94
		c8.36,2.07,16.82,2.76,25.4,1.78c0.37-0.04,0.74-0.07,1.12-0.11c0.05,0,0.1,0.01,0.34,0.04c-0.44,0.22-0.73,0.38-1.02,0.52
		c-7.63,3.67-15.67,5.91-24.06,6.89c-11.98,1.4-23.72,0.26-35.15-3.63c-9.71-3.31-18.38-8.36-25.56-15.77
		c-6.38-6.59-10.75-14.28-12.48-23.37C160.17,294.6,160.09,294.06,160,293.52z"/>
	<linearGradient id="SVGID_2_" gradientUnits="userSpaceOnUse" x1="205.8514" y1="333.3712" x2="59.4125" y2="209.6747">
		<stop  offset="0.081" style="stop-color:#F06DB5"/>
		<stop  offset="0.6117" style="stop-color:#BE4EBF"/>
		<stop  offset="0.9469" style="stop-color:#6D28D9"/>
	</linearGradient>
	<path class="st1" d="M258.55,330.71c-0.42,0.51-0.83,1.02-1.27,1.52c-3.68,4.22-7.89,7.82-12.51,10.97
		c-9.79,6.66-20.59,10.63-32.32,11.94c-17.96,2.01-34.65-1.68-49.82-11.65c-4-2.63-7.65-5.68-10.87-9.24
		c-19.69-23.63-15.64-55.3-15.33-56.96c0.48-2.62,0.95-5.26,1.62-7.84c0.87-3.34,1.87-6.66,3.3-9.82c0.57-1.26,1.08-2.54,1.68-3.78
		c0.45-0.94,0.96-1.85,1.48-2.75c0.88-1.51,1.8-3.01,2.71-4.51c0.07-0.12,0.17-0.22,0.36-0.28c-0.17,0.57-0.34,1.13-0.5,1.7
		c-5.61,19.39-4.99,38.51,2.59,57.28c3.06,7.58,7.42,14.35,13.34,20.05c0.41,0.4,0.84,0.78,1.34,1.13
		c-2.28-5.53-3.77-11.25-4.51-17.17c-0.75-5.94-0.75-11.87-0.03-17.64c0.72,2.6,1.32,5.38,2.26,8.03
		c3.04,8.52,8.4,15.42,15.35,21.12c8.96,7.35,19.27,11.83,30.57,14.05c15.97,3.14,31.54,1.74,46.61-4.55
		c1.3-0.54,2.58-1.15,3.87-1.73C258.49,330.64,258.52,330.67,258.55,330.71z"/>
	<linearGradient id="SVGID_3_" gradientUnits="userSpaceOnUse" x1="378.4789" y1="207.6999" x2="251.1769" y2="197.7155">
		<stop  offset="0.081" style="stop-color:#F06DB5"/>
		<stop  offset="0.6117" style="stop-color:#BE4EBF"/>
		<stop  offset="0.9469" style="stop-color:#6D28D9"/>
	</linearGradient>
	<path class="st2" d="M307.7,220.2c-7.23-0.27-14.1-1.13-20.67-3.68c-2.94-1.14-5.74-2.56-8.29-4.43c-0.39-0.29-0.74-0.74-0.91-1.19
		c-1.74-4.71-1.19-9.23,1.33-13.52c2.16-3.69,5.29-6.4,8.91-8.59c4.32-2.61,9.02-4.22,13.96-5.19c0.23-0.05,0.5-0.02,0.73,0.05
		c13.67,4.17,25.89,10.81,35.92,21.16c0.69,0.72,1.33,1.49,2.03,2.2c0.35,0.37,0.31,0.64,0,1.01c-2.15,2.6-4.85,4.51-7.76,6.14
		c-2.97,1.67-6.12,2.91-9.44,3.69c-1.95,0.46-3.92,0.83-5.89,1.19c-1.68,0.31-3.37,0.62-5.07,0.82
		C310.85,220.06,309.15,220.11,307.7,220.2z"/>
	<linearGradient id="SVGID_4_" gradientUnits="userSpaceOnUse" x1="212.6293" y1="219.1013" x2="457.8036" y2="300.0865">
		<stop  offset="2.793296e-03" style="stop-color:#E8A0E2"/>
		<stop  offset="0.3436" style="stop-color:#F06DB5"/>
		<stop  offset="0.8296" style="stop-color:#BE4EBF"/>
	</linearGradient>
	<path class="st3" d="M431.05,301.25c-0.2,2.03-0.35,4.07-0.6,6.09c-0.81,6.55-2.47,12.88-4.98,18.98
		c-0.03,0.08-0.09,0.16-0.11,0.19c-0.41-2.16-0.73-4.34-1.25-6.48c-1.33-5.5-3.76-10.5-6.94-15.16
		c-5.02-7.34-11.47-13.2-18.79-18.15c-8.08-5.46-16.84-9.51-26.06-12.59c-7.21-2.41-14.57-4.17-22.07-5.34
		c-11.68-1.83-23.43-2.28-35.22-1.4c-13.39,1-26.43,3.65-39.02,8.38c-5.45,2.05-10.67,4.58-15.82,7.29
		c-3.05,1.61-6.17,3.14-9.56,3.99c-2.59,0.65-5.15,1.57-7.78,1.95c-11.59,1.65-22.42-0.49-32.24-7.05
		c-2.67-1.78-4.84-4.06-6.55-6.79c-4.76-7.57-7.55-15.82-8.55-24.68c-0.25-2.18-0.46-4.38-0.42-6.57c0.06-2.95,0.34-5.9,0.59-8.85
		c0.11-1.31,0.32-2.62,0.56-3.91c1.23-6.57,3.2-12.87,6.68-18.64c3.2-5.31,7.4-9.69,12.21-13.53c11.4-9.12,24.47-14.53,38.68-17.38
		c5.1-1.02,10.25-1.63,15.44-1.84c0.27-0.01,0.54-0.08,0.81-0.11c2.65,0,5.29,0,7.94,0c0.27,0.04,0.54,0.1,0.81,0.11
		c6.18,0.25,12.28,1.08,18.3,2.45c1.98,0.45,3.94,0.99,5.91,1.48c-0.17,0.21-0.33,0.26-0.48,0.3c-1.85,0.5-3.74,0.91-5.56,1.51
		c-5.43,1.8-10.36,4.46-14.26,8.75c-3.29,3.62-5.27,7.81-4.8,12.79c0.42,4.37,2.07,8.29,5.04,11.61c3.56,3.98,8.03,6.62,12.91,8.59
		c4.94,1.99,10.11,3.04,15.43,3.37c7.45,0.47,14.78-0.25,21.84-2.75c4.35-1.54,8.64-3.23,13.18-4.17c5.53-1.16,11.11-1.6,16.75-1.29
		c3.59,0.2,7.17,0.51,10.65,1.48c1.97,0.54,4,0.91,5.89,1.65c5.57,2.18,10.82,5.02,15.77,8.37c13.51,9.14,23.72,21.04,30.03,36.16
		c1.42,3.41,2.54,6.92,3.43,10.52c0.86,3.49,1.42,7.03,1.79,10.6c0.14,1.36,0.28,2.72,0.42,4.07
		C431.05,297.25,431.05,299.25,431.05,301.25z"/>
	<linearGradient id="SVGID_5_" gradientUnits="userSpaceOnUse" x1="351.5141" y1="281.852" x2="286.5828" y2="440.0181">
		<stop  offset="0.081" style="stop-color:#F06DB5"/>
		<stop  offset="0.6117" style="stop-color:#BE4EBF"/>
		<stop  offset="0.9469" style="stop-color:#6D28D9"/>
	</linearGradient>
	<path class="st4" d="M276.82,274.4c1.52-0.44,3.03-0.92,4.56-1.32c6.21-1.61,12.5-2.82,18.9-3.39c6.15-0.55,12.31-0.79,18.47-0.21
		c4.49,0.42,8.98,0.94,13.42,1.66c7.71,1.25,15.15,3.51,22.35,6.55c12.29,5.18,23.17,12.39,31.96,22.53
		c6.77,7.81,11.56,16.66,13.82,26.8c1.16,5.22,1.57,10.5,1.13,15.84c-0.52,6.27-2.06,12.28-4.61,18.03c0,0-0.6,0.51-1,0.75
		c-2.24,1.31-4.46,2.92-6.73,4.17c-6.25,3.05-12.63,4.64-19.32,5.66c-1.33,0.2-2.88,0.26-4.35,0.41c0.18-0.34,0.51-0.54,0.64-0.76
		c5.83-10.2,8.81-21.15,8.56-32.91c-0.31-14.2-4.98-26.9-13.69-38.07c-10.81-13.85-25.05-22.4-42-26.59
		c-8.75-2.16-17.64-2.73-26.61-1.93c-5.15,0.46-10.21,1.43-15.18,2.86c-0.09,0.03-0.18,0.05-0.27,0.07
		C276.84,274.49,276.83,274.45,276.82,274.4z"/>
	<linearGradient id="SVGID_6_" gradientUnits="userSpaceOnUse" x1="210.6989" y1="306.4426" x2="305.5514" y2="311.4348">
		<stop  offset="0.081" style="stop-color:#F06DB5"/>
		<stop  offset="0.6117" style="stop-color:#BE4EBF"/>
		<stop  offset="0.9469" style="stop-color:#6D28D9"/>
	</linearGradient>
	<path class="st5" d="M394.05,362.75c0.9-2.61,1.92-5.14,2.65-7.74c4.08-14.53,2.28-28.42-4.84-41.65
		c-5.48-10.19-13.34-18.24-22.78-24.81c-11.23-7.8-23.68-12.75-37.02-15.55c-10.02-2.11-20.15-2.81-30.37-2.23
		c-8.83,0.5-17.49,1.98-25.97,4.51c-0.09,0.03-0.18,0.05-0.32-0.03c0.27-0.11,0.55-0.23,0.82-0.34c10.18-3.84,20.7-6.3,31.49-7.65
		c8.59-1.07,17.21-1.43,25.85-1.02c17.64,0.84,34.67,4.35,50.8,11.68c9.13,4.15,17.54,9.42,24.8,16.4
		c6.27,6.03,11.24,12.96,14.13,21.24c1.1,3.15,1.8,6.38,2.13,9.69c0.04,0.43-0.01,0.91-0.18,1.3
		c-6.56,15.06-16.95,26.87-30.64,35.84C394.44,362.53,394.24,362.64,394.05,362.75z"/>
	<linearGradient id="SVGID_7_" gradientUnits="userSpaceOnUse" x1="165.7371" y1="354.915" x2="375.411" y2="318.3053">
		<stop  offset="0.081" style="stop-color:#F06DB5"/>
		<stop  offset="0.6117" style="stop-color:#BE4EBF"/>
		<stop  offset="0.9469" style="stop-color:#6D28D9"/>
	</linearGradient>
	<path class="st6" d="M277.08,393.99c-13.71-1.58-26.14-6.29-36.84-15.18c-1.21-1-2.33-2.12-3.48-3.18
		c-0.18-0.16-1.29,0.27-1.73,0.43c-9.41,3.45-19.13,4.91-29.13,4.11c-17.7-1.42-32.84-8.34-44.98-21.44
		c-4.55-4.91-8.12-10.49-10.77-16.64c-0.11-0.24-0.19-0.5-0.37-0.94c0.29,0.22,0.42,0.3,0.53,0.41c7.25,7.4,15.71,12.97,25.34,16.78
		c5.78,2.29,11.76,3.81,17.93,4.63c5.39,0.73,10.79,0.8,16.21,0.46c1.83-0.12,3.67-0.23,5.47-0.53c1.88-0.31,3.71-0.88,5.58-1.27
		c3.72-0.77,7.28-2.08,10.76-3.52c6.04-2.5,11.69-5.73,16.9-9.7c3.6-2.75,6.83-5.9,10.06-9.06c27.51-33.82,43.01-39.91,56.36-42.51
		c8.26-1.61,17.38-0.92,25.18,1.57c0.22,0.03,0.44,0.04,0.78,0.06c-0.05-0.45-0.02-0.85-0.14-1.21c-1.57-4.93-4.45-9-8.29-12.42
		c-5.72-5.09-12.45-8.24-19.77-10.21c-9.19-2.48-18.51-2.91-27.9-1.41c-2.82,0.45-5.59,1.24-8.39,1.88
		c-0.16,0.04-0.32,0.09-0.53-0.03c1.56-0.44,3.1-0.94,4.67-1.32c7.05-1.75,14.2-2.69,21.48-2.56c11.43,0.21,22.38,2.6,32.75,7.44
		c11.87,5.54,21.74,13.52,29.24,24.31c6.14,8.83,9.94,18.57,11.16,29.28c1.58,13.89-1.58,27.43-8.47,39.54l-0.86,0.09
		c-8.69,0.53-17.19-0.51-25.5-3.06c-0.5-0.15-0.67-0.03-0.96,0.43c-0.7,1.08-8.91,9.8-15.62,14.11c-0.99,0.7-2,1.39-3.05,2
		c-1.33,0.76-2.7,1.47-4.09,2.13c-1.44,0.69-2.88,1.38-4.38,1.91c-2.65,0.95-5.28,2-8.01,2.63
		C298.09,393.45,286.95,394.65,277.08,393.99z"/>
</g>
</svg>
