<?xml version="1.0" encoding="UTF-8"?>
<svg version="1.1" viewBox="0 0 1000 1000" xml:space="preserve" xmlns="http://www.w3.org/2000/svg">
<desc>Created with Fabric.js 3.5.0</desc>

<rect width="100%" height="100%" fill="#fff"/>
<g transform="matrix(1.7651 0 0 1.7651 500.34 500.34)">
<g vector-effect="non-scaling-stroke" style="">
		<g id="图层_1" transform="translate(-83.092 -7.9178)">
<linearGradient id="m" x1="-167.01" x2="-55.926" y1="284.21" y2="281.68" gradientUnits="userSpaceOnUse">
<stop stop-color="#f06db5" offset=".081"/>
<stop stop-color="#be4ebf" offset=".6117"/>
<stop stop-color="#6d28d9" offset=".9469"/>
</linearGradient>
<path transform="translate(-200.37 -275.55)" d="m160 293.52c-1.54 12.04-0.28 23.73 4.37 35.05-0.19-0.17-0.38-0.33-0.57-0.5-5.63-5.18-10.8-9.72-14.01-16.62-3.86-8.32-6.47-18.62-7.33-27.73-1.11-11.78 1.41-23.47 4.98-34.76 0.42-1.34 1.13-2.47 2.02-3.53 2.15-2.56 4.19-5.2 6.41-7.7 2.65-2.99 5.67-5.61 8.81-8.09 3.12-2.46 6.37-4.74 9.86-6.62 3.22-1.73 6.5-3.39 9.89-4.76 3.73-1.5 7.55-2.8 11.49-3.7 2.63-0.61 5.25-1.28 7.94-1.94-0.64 1.38-1.36 2.65-1.83 4-0.6 1.72-1.63 3.04-2.93 4.3-5.85 5.67-10.45 12.25-13.74 19.7-4.65 10.53-6.35 21.52-4.87 32.98 1.09 8.46 3.84 16.34 8.15 23.68 3.97 6.76 9.03 12.6 15.09 17.56 8.26 6.76 17.61 11.38 27.96 13.94 8.36 2.07 16.82 2.76 25.4 1.78 0.37-0.04 0.74-0.07 1.12-0.11 0.05 0 0.1 0.01 0.34 0.04-0.44 0.22-0.73 0.38-1.02 0.52-7.63 3.67-15.67 5.91-24.06 6.89-11.98 1.4-23.72 0.26-35.15-3.63-9.71-3.31-18.38-8.36-25.56-15.77-6.38-6.59-10.75-14.28-12.48-23.37-0.11-0.53-0.19-1.07-0.28-1.61z" fill="url(#m)" stroke-linecap="round" style="font-file-url:none;is-custom-font:none"/>
</g>
		<g id="图层_1" transform="translate(-86.249 18.524)">
<linearGradient id="l" x1="205.85" x2="59.412" y1="333.37" y2="209.67" gradientUnits="userSpaceOnUse">
<stop stop-color="#f06db5" offset=".081"/>
<stop stop-color="#be4ebf" offset=".6117"/>
<stop stop-color="#6d28d9" offset=".9469"/>
</linearGradient>
<path transform="translate(-197.22 -301.99)" d="m258.55 330.71c-0.42 0.51-0.83 1.02-1.27 1.52-3.68 4.22-7.89 7.82-12.51 10.97-9.79 6.66-20.59 10.63-32.32 11.94-17.96 2.01-34.65-1.68-49.82-11.65-4-2.63-7.65-5.68-10.87-9.24-19.69-23.63-15.64-55.3-15.33-56.96 0.48-2.62 0.95-5.26 1.62-7.84 0.87-3.34 1.87-6.66 3.3-9.82 0.57-1.26 1.08-2.54 1.68-3.78 0.45-0.94 0.96-1.85 1.48-2.75 0.88-1.51 1.8-3.01 2.71-4.51 0.07-0.12 0.17-0.22 0.36-0.28-0.17 0.57-0.34 1.13-0.5 1.7-5.61 19.39-4.99 38.51 2.59 57.28 3.06 7.58 7.42 14.35 13.34 20.05 0.41 0.4 0.84 0.78 1.34 1.13-2.28-5.53-3.77-11.25-4.51-17.17-0.75-5.94-0.75-11.87-0.03-17.64 0.72 2.6 1.32 5.38 2.26 8.03 3.04 8.52 8.4 15.42 15.35 21.12 8.96 7.35 19.27 11.83 30.57 14.05 15.97 3.14 31.54 1.74 46.61-4.55 1.3-0.54 2.58-1.15 3.87-1.73 0.02 0.06 0.05 0.09 0.08 0.13z" fill="url(#l)" stroke-linecap="round" style="font-file-url:none;is-custom-font:none"/>
</g>
		<g id="图层_1" transform="translate(25.424 -81.577)">
<linearGradient id="k" x1="378.48" x2="251.18" y1="207.7" y2="197.72" gradientUnits="userSpaceOnUse">
<stop stop-color="#f06db5" offset=".081"/>
<stop stop-color="#be4ebf" offset=".6117"/>
<stop stop-color="#6d28d9" offset=".9469"/>
</linearGradient>
<path transform="translate(-308.89 -201.89)" d="m307.7 220.2c-7.23-0.27-14.1-1.13-20.67-3.68-2.94-1.14-5.74-2.56-8.29-4.43-0.39-0.29-0.74-0.74-0.91-1.19-1.74-4.71-1.19-9.23 1.33-13.52 2.16-3.69 5.29-6.4 8.91-8.59 4.32-2.61 9.02-4.22 13.96-5.19 0.23-0.05 0.5-0.02 0.73 0.05 13.67 4.17 25.89 10.81 35.92 21.16 0.69 0.72 1.33 1.49 2.03 2.2 0.35 0.37 0.31 0.64 0 1.01-2.15 2.6-4.85 4.51-7.76 6.14-2.97 1.67-6.12 2.91-9.44 3.69-1.95 0.46-3.92 0.83-5.89 1.19-1.68 0.31-3.37 0.62-5.07 0.82s-3.4 0.25-4.85 0.34z" fill="url(#k)" stroke-linecap="round" style="font-file-url:none;is-custom-font:none"/>
</g>
		<g id="图层_1" transform="translate(29.603 -30.385)">
<linearGradient id="j" x1="212.63" x2="457.8" y1="219.1" y2="300.09" gradientUnits="userSpaceOnUse">
<stop stop-color="#e8a0e2" offset=".0027933"/>
<stop stop-color="#f06db5" offset=".3436"/>
<stop stop-color="#be4ebf" offset=".8296"/>
</linearGradient>
<path transform="translate(-313.07 -253.08)" d="m431.05 301.25c-0.2 2.03-0.35 4.07-0.6 6.09-0.81 6.55-2.47 12.88-4.98 18.98-0.03 0.08-0.09 0.16-0.11 0.19-0.41-2.16-0.73-4.34-1.25-6.48-1.33-5.5-3.76-10.5-6.94-15.16-5.02-7.34-11.47-13.2-18.79-18.15-8.08-5.46-16.84-9.51-26.06-12.59-7.21-2.41-14.57-4.17-22.07-5.34-11.68-1.83-23.43-2.28-35.22-1.4-13.39 1-26.43 3.65-39.02 8.38-5.45 2.05-10.67 4.58-15.82 7.29-3.05 1.61-6.17 3.14-9.56 3.99-2.59 0.65-5.15 1.57-7.78 1.95-11.59 1.65-22.42-0.49-32.24-7.05-2.67-1.78-4.84-4.06-6.55-6.79-4.76-7.57-7.55-15.82-8.55-24.68-0.25-2.18-0.46-4.38-0.42-6.57 0.06-2.95 0.34-5.9 0.59-8.85 0.11-1.31 0.32-2.62 0.56-3.91 1.23-6.57 3.2-12.87 6.68-18.64 3.2-5.31 7.4-9.69 12.21-13.53 11.4-9.12 24.47-14.53 38.68-17.38 5.1-1.02 10.25-1.63 15.44-1.84 0.27-0.01 0.54-0.08 0.81-0.11h7.94c0.27 0.04 0.54 0.1 0.81 0.11 6.18 0.25 12.28 1.08 18.3 2.45 1.98 0.45 3.94 0.99 5.91 1.48-0.17 0.21-0.33 0.26-0.48 0.3-1.85 0.5-3.74 0.91-5.56 1.51-5.43 1.8-10.36 4.46-14.26 8.75-3.29 3.62-5.27 7.81-4.8 12.79 0.42 4.37 2.07 8.29 5.04 11.61 3.56 3.98 8.03 6.62 12.91 8.59 4.94 1.99 10.11 3.04 15.43 3.37 7.45 0.47 14.78-0.25 21.84-2.75 4.35-1.54 8.64-3.23 13.18-4.17 5.53-1.16 11.11-1.6 16.75-1.29 3.59 0.2 7.17 0.51 10.65 1.48 1.97 0.54 4 0.91 5.89 1.65 5.57 2.18 10.82 5.02 15.77 8.37 13.51 9.14 23.72 21.04 30.03 36.16 1.42 3.41 2.54 6.92 3.43 10.52 0.86 3.49 1.42 7.03 1.79 10.6 0.14 1.36 0.28 2.72 0.42 4.07v6z" fill="url(#j)" stroke-linecap="round" style="font-file-url:none;is-custom-font:none"/>
</g>
		<g id="图层_1" transform="translate(55.746 37.047)">
<linearGradient id="i" x1="351.51" x2="286.58" y1="281.85" y2="440.02" gradientUnits="userSpaceOnUse">
<stop stop-color="#f06db5" offset=".081"/>
<stop stop-color="#be4ebf" offset=".6117"/>
<stop stop-color="#6d28d9" offset=".9469"/>
</linearGradient>
<path transform="translate(-339.21 -320.51)" d="m276.82 274.4c1.52-0.44 3.03-0.92 4.56-1.32 6.21-1.61 12.5-2.82 18.9-3.39 6.15-0.55 12.31-0.79 18.47-0.21 4.49 0.42 8.98 0.94 13.42 1.66 7.71 1.25 15.15 3.51 22.35 6.55 12.29 5.18 23.17 12.39 31.96 22.53 6.77 7.81 11.56 16.66 13.82 26.8 1.16 5.22 1.57 10.5 1.13 15.84-0.52 6.27-2.06 12.28-4.61 18.03 0 0-0.6 0.51-1 0.75-2.24 1.31-4.46 2.92-6.73 4.17-6.25 3.05-12.63 4.64-19.32 5.66-1.33 0.2-2.88 0.26-4.35 0.41 0.18-0.34 0.51-0.54 0.64-0.76 5.83-10.2 8.81-21.15 8.56-32.91-0.31-14.2-4.98-26.9-13.69-38.07-10.81-13.85-25.05-22.4-42-26.59-8.75-2.16-17.64-2.73-26.61-1.93-5.15 0.46-10.21 1.43-15.18 2.86-0.09 0.03-0.18 0.05-0.27 0.07-0.03-0.06-0.04-0.1-0.05-0.15z" fill="url(#i)" stroke-linecap="round" style="font-file-url:none;is-custom-font:none"/>
</g>
		<g id="图层_1" transform="translate(66.952 30.948)">
<linearGradient id="h" x1="210.7" x2="305.55" y1="306.44" y2="311.43" gradientUnits="userSpaceOnUse">
<stop stop-color="#f06db5" offset=".081"/>
<stop stop-color="#be4ebf" offset=".6117"/>
<stop stop-color="#6d28d9" offset=".9469"/>
</linearGradient>
<path transform="translate(-350.42 -314.41)" d="m394.05 362.75c0.9-2.61 1.92-5.14 2.65-7.74 4.08-14.53 2.28-28.42-4.84-41.65-5.48-10.19-13.34-18.24-22.78-24.81-11.23-7.8-23.68-12.75-37.02-15.55-10.02-2.11-20.15-2.81-30.37-2.23-8.83 0.5-17.49 1.98-25.97 4.51-0.09 0.03-0.18 0.05-0.32-0.03 0.27-0.11 0.55-0.23 0.82-0.34 10.18-3.84 20.7-6.3 31.49-7.65 8.59-1.07 17.21-1.43 25.85-1.02 17.64 0.84 34.67 4.35 50.8 11.68 9.13 4.15 17.54 9.42 24.8 16.4 6.27 6.03 11.24 12.96 14.13 21.24 1.1 3.15 1.8 6.38 2.13 9.69 0.04 0.43-0.01 0.91-0.18 1.3-6.56 15.06-16.95 26.87-30.64 35.84-0.16 0.14-0.36 0.25-0.55 0.36z" fill="url(#h)" stroke-linecap="round" style="font-file-url:none;is-custom-font:none"/>
</g>
		<g id="图层_1" transform="translate(-20.795 49.212)">
<linearGradient id="g" x1="165.74" x2="375.41" y1="354.92" y2="318.31" gradientUnits="userSpaceOnUse">
<stop stop-color="#f06db5" offset=".081"/>
<stop stop-color="#be4ebf" offset=".6117"/>
<stop stop-color="#6d28d9" offset=".9469"/>
</linearGradient>
<path transform="translate(-262.67 -332.68)" d="m277.08 393.99c-13.71-1.58-26.14-6.29-36.84-15.18-1.21-1-2.33-2.12-3.48-3.18-0.18-0.16-1.29 0.27-1.73 0.43-9.41 3.45-19.13 4.91-29.13 4.11-17.7-1.42-32.84-8.34-44.98-21.44-4.55-4.91-8.12-10.49-10.77-16.64-0.11-0.24-0.19-0.5-0.37-0.94 0.29 0.22 0.42 0.3 0.53 0.41 7.25 7.4 15.71 12.97 25.34 16.78 5.78 2.29 11.76 3.81 17.93 4.63 5.39 0.73 10.79 0.8 16.21 0.46 1.83-0.12 3.67-0.23 5.47-0.53 1.88-0.31 3.71-0.88 5.58-1.27 3.72-0.77 7.28-2.08 10.76-3.52 6.04-2.5 11.69-5.73 16.9-9.7 3.6-2.75 6.83-5.9 10.06-9.06 27.51-33.82 43.01-39.91 56.36-42.51 8.26-1.61 17.38-0.92 25.18 1.57 0.22 0.03 0.44 0.04 0.78 0.06-0.05-0.45-0.02-0.85-0.14-1.21-1.57-4.93-4.45-9-8.29-12.42-5.72-5.09-12.45-8.24-19.77-10.21-9.19-2.48-18.51-2.91-27.9-1.41-2.82 0.45-5.59 1.24-8.39 1.88-0.16 0.04-0.32 0.09-0.53-0.03 1.56-0.44 3.1-0.94 4.67-1.32 7.05-1.75 14.2-2.69 21.48-2.56 11.43 0.21 22.38 2.6 32.75 7.44 11.87 5.54 21.74 13.52 29.24 24.31 6.14 8.83 9.94 18.57 11.16 29.28 1.58 13.89-1.58 27.43-8.47 39.54l-0.86 0.09c-8.69 0.53-17.19-0.51-25.5-3.06-0.5-0.15-0.67-0.03-0.96 0.43-0.7 1.08-8.91 9.8-15.62 14.11-0.99 0.7-2 1.39-3.05 2-1.33 0.76-2.7 1.47-4.09 2.13-1.44 0.69-2.88 1.38-4.38 1.91-2.65 0.95-5.28 2-8.01 2.63-6.13 1.45-17.27 2.65-27.14 1.99z" fill="url(#g)" stroke-linecap="round" style="font-file-url:none;is-custom-font:none"/>
</g>
</g>
</g>
<g transform="matrix(1.4794 0 0 1.4794 499.99 832.03)">
<g vector-effect="non-scaling-stroke" style="">
		<g id="图层_1" transform="translate(-162.94 13.55)">
<linearGradient id="f" x1="89.742" x2="644.41" y1="290.91" y2="449.13" gradientUnits="userSpaceOnUse">
<stop stop-color="#f06db5" offset=".081"/>
<stop stop-color="#be4ebf" offset=".6117"/>
<stop stop-color="#6d28d9" offset=".9469"/>
</linearGradient>
<path transform="translate(-120.52 -297.02)" d="m142.5 329.24c-5.08 0-9.15-4.07-9.15-9.15v-24.41c0-6.99-5.72-12.71-12.71-12.71s-12.71 5.72-12.71 12.71v24.41c0 5.08-4.07 9.15-9.15 9.15s-9.15-4.07-9.15-9.15v-24.41c0-17.03 13.86-30.89 30.89-30.89s30.89 13.86 30.89 30.89v24.41c0 5.08-4.07 9.15-9.15 9.15h0.24z" fill="url(#f)" stroke-linecap="round" style="font-file-url:none;is-custom-font:none"/>
</g>
		<g id="图层_1" transform="translate(-114.02 13.555)">
<linearGradient id="e" x1="94.096" x2="648.76" y1="275.52" y2="433.74" gradientUnits="userSpaceOnUse">
<stop stop-color="#f06db5" offset=".081"/>
<stop stop-color="#be4ebf" offset=".6117"/>
<stop stop-color="#6d28d9" offset=".9469"/>
</linearGradient>
<path transform="translate(-169.45 -297.02)" d="m160.04 319.84v-45.64c0-5.21 4.2-9.41 9.41-9.41s9.41 4.19 9.41 9.41v45.64c0 5.21-4.2 9.41-9.41 9.41-5.22-0.01-9.41-4.2-9.41-9.41z" fill="url(#e)" stroke-linecap="round" style="font-file-url:none;is-custom-font:none"/>
</g>
		<g id="图层_1" transform="translate(-51.355 13.615)">
<linearGradient id="d" x1="98.244" x2="652.91" y1="261.04" y2="419.27" gradientUnits="userSpaceOnUse">
<stop stop-color="#f06db5" offset=".081"/>
<stop stop-color="#be4ebf" offset=".6117"/>
<stop stop-color="#6d28d9" offset=".9469"/>
</linearGradient>
<path transform="translate(-232.11 -297.08)" d="m249.91 264.79c14.87 0 26.95 12.08 26.95 26.95v28.22c0 5.21-4.2 9.41-9.41 9.41s-9.41-4.19-9.41-9.41v-28.22c0-4.58-3.69-8.26-8.26-8.26s-8.26 3.69-8.26 8.26v28.22c0 5.21-4.2 9.41-9.41 9.41s-9.41-4.19-9.41-9.41v-28.22c0-4.58-3.69-8.26-8.26-8.26-4.58 0-8.26 3.69-8.26 8.26v28.22c0 5.21-4.2 9.41-9.41 9.41s-9.41-4.19-9.41-9.41v-28.22c0-14.87 12.08-26.95 26.95-26.95 6.74 0 12.84 2.42 17.54 6.48 4.7-4.07 10.81-6.48 17.54-6.48h0.52z" fill="url(#d)" stroke-linecap="round" style="font-file-url:none;is-custom-font:none"/>
</g>
		<g id="图层_1" transform="translate(33.76 -.235)">
<linearGradient id="c" x1="107.15" x2="661.82" y1="229.81" y2="388.03" gradientUnits="userSpaceOnUse">
<stop stop-color="#f06db5" offset=".081"/>
<stop stop-color="#be4ebf" offset=".6117"/>
<stop stop-color="#6d28d9" offset=".9469"/>
</linearGradient>
<path transform="translate(-317.22 -283.23)" d="m317.16 264.67c17.8 0 32.29 14.49 32.29 32.29s-14.49 32.29-32.29 32.29c-5.47 0-10.68-1.4-15.25-3.81-1.78 2.29-4.45 3.81-7.5 3.81-5.21 0-9.41-4.19-9.41-9.41v-73.22c0-5.21 4.19-9.41 9.41-9.41 5.21 0 9.41 4.19 9.41 9.41v21.1c4.07-1.91 8.52-2.92 13.22-2.92l0.12-0.13zm13.34 32.16c0-7.37-5.97-13.35-13.35-13.35s-13.35 5.97-13.35 13.35c0 7.37 5.97 13.35 13.35 13.35s13.35-5.98 13.35-13.35z" fill="url(#c)" stroke-linecap="round" style="font-file-url:none;is-custom-font:none"/>
</g>
		<g id="图层_1" transform="translate(104.24 13.425)">
<linearGradient id="b" x1="111.28" x2="665.95" y1="215.34" y2="373.56" gradientUnits="userSpaceOnUse">
<stop stop-color="#f06db5" offset=".081"/>
<stop stop-color="#be4ebf" offset=".6117"/>
<stop stop-color="#6d28d9" offset=".9469"/>
</linearGradient>
<path transform="translate(-387.7 -296.89)" d="m356.56 298.1v-24.41c0-5.08 4.07-9.15 9.15-9.15s9.15 4.07 9.15 9.15v24.41c0 7.12 5.72 12.84 12.84 12.84s12.84-5.72 12.84-12.84v-24.41c0-5.08 4.07-9.15 9.15-9.15s9.15 4.07 9.15 9.15v24.41c0 17.16-13.98 31.14-31.14 31.14-17.15 0-31.14-13.98-31.14-31.14z" fill="url(#b)" stroke-linecap="round" style="font-file-url:none;is-custom-font:none"/>
</g>
		<g id="n" transform="translate(168.37 13.905)">
<linearGradient id="a" x1="115.27" x2="669.94" y1="201.36" y2="359.58" gradientUnits="userSpaceOnUse">
<stop stop-color="#f06db5" offset=".081"/>
<stop stop-color="#be4ebf" offset=".6117"/>
<stop stop-color="#6d28d9" offset=".9469"/>
</linearGradient>
<path transform="translate(-451.84 -297.37)" d="m459.29 283.74c-2.82 0-11.31 0.03-12.74 0.06-1.35 0.03-1.61 0.53-2.2 1.2-0.08 0.09-1.04 3.24 2.07 3.51 0.35 0.03 0.7 0.03 1.05 0.03 3.91 0 7.82-0.05 11.73 0.03 1.15 0.02 2.31 0.31 3.43 0.63 2.62 0.75 5.09 1.85 7.37 3.36 2.63 1.74 4.79 3.94 6.34 6.7 1.85 3.28 2.26 6.85 2.02 10.55-0.14 2.2-0.62 4.32-1.39 6.37-1.26 3.34-3.29 6.14-6.13 8.34-2.53 1.96-5.39 3.27-8.46 4.01-2.31 0.56-4.69 0.81-7.05 1.19-0.06 0.01-17.2-0.35-19.99-0.44-2.61-0.09-4.85-1.02-6.63-2.95-3.62-3.92-3.01-10.77 1.83-13.77 1.71-1.06 3.59-1.47 5.53-1.5 5.02-0.07 20.39-0.03 21.63-0.2 0.93-0.13 2.2-0.72 2.2-2.21 0-1.94-1.22-2.18-2.43-2.39-0.38-0.07-0.78-0.06-1.17-0.06-3.93 0-7.87 0.04-11.8-0.03-1.15-0.02-2.32-0.31-3.43-0.63-2.62-0.75-5.09-1.85-7.37-3.35-2.64-1.74-4.8-3.94-6.35-6.69-1.88-3.34-2.29-6.97-2.02-10.73 0.15-2.13 0.62-4.2 1.37-6.18 1.16-3.09 3.17-5.54 5.54-7.88 5.48-5.41 13.6-5.69 16.08-5.69 0.08 0 17.43 0.3 20.42 0.47 3.38 0.2 5.97 1.82 7.55 4.81 1.83 3.47 1.26 8.23-2.07 11.1-1.88 1.62-4.12 2.21-6.51 2.28-2.82 0.08-8.42 0.04-8.42 0.06z" fill="url(#a)" stroke-linecap="round" style="font-file-url:none;is-custom-font:none"/>
</g>
		<g transform="translate(-114.04 -33.965)">
<circle r="10.92" fill="#410692" style="font-file-url:none;is-custom-font:none"/>
</g>
</g>
</g>
</svg>
